{"title":"Helene Fischer - Zum ersten Mal mit Band und Orchester Live (201","uid":9496813,"size":23009241685,"categoryP":"video","categoryS":"music_videos","magnet":"?xt=urn:btih:60ad9c62cbb64bc35af40f74aad6add6c589de9d&amp;dn=Helene+Fischer+-+Zum+ersten+Mal+mit+Band+und+Orchester+Live+%28201&amp;tr=udp%3A%2F%2Ftracker.openbittorrent.com%3A80&amp;tr=udp%3A%2F%2Fopen.demonii.com%3A1337&amp;tr=udp%3A%2F%2Ftracker.coppersurfer.tk%3A6969&amp;tr=udp%3A%2F%2Fexodus.desync.com%3A6969","seeders":4,"leechers":2,"uploader":"neni69","files":1,"time":1390091852,"description":" &lt;a href=&quot; http://mediaclub.tv/&quot; rel=&quot;nofollow&quot; target=&quot;_NEW&quot;&gt; http://mediaclub.tv/&lt;/a&gt;   Welcome to MediaClub\n\n===================================================================\n\nUnique ID                      : 179783200564530209259248776339560261087 (0x8740FC25742FEDEBA191DFFED0CEE5DF)\nComplete name                  : E:MCHelene.Fischer.Zum.ersten.Mal.mit.Band.und.Orchester.2011.x264.BDRip(1080p)-MediaClubHelene.Fischer.Zum.ersten.Mal.mit.Band.und.Orchester.2011.x264.BDRip(1080p)-MediaClub.mkv\nFormat                         : Matroska\nFormat version                 : Version 2\nFile size                      : 21.4 GiB\nDuration                       : 2h 44mn\nOverall bit rate               : 18.7 Mbps\nMovie name                     : -= Release MediaClub =-\nEncoded date                   : UTC 2013-05-08 21:04:23\nWriting application            : mkvmerge v4.3.0 ('Escape from the Island')  Sep  5 2010 10:30:51\nWriting library                : libebml v1.0.0 + libmatroska v1.0.0\n\nVideo\nID                             : 1\nFormat                         : AVC\nFormat/Info                    : Advanced Video Codec\nFormat profile                 : &lt;a class=&quot;__cf_email__&quot; href=&quot;/cdn-cgi/l/email-protection&quot; data-cfemail=&quot;3c74555b547c7008120d&quot;&gt;[email&amp;#160;protected]&lt;/a&gt;&lt;script cf-hash='f9e31' type=&quot;text/javascript&quot;&gt;\n/* &lt;![CDATA[ */!function(){try{var t=&quot;currentScript&quot;in document?document.currentScript:function(){for(var t=document.getElementsByTagName(&quot;script&quot;),e=t.length;e--;)if(t[e].getAttribute(&quot;cf-hash&quot;))return t[e]}();if(t&amp;&amp;t.previousSibling){var e,r,n,i,c=t.previousSibling,a=c.getAttribute(&quot;data-cfemail&quot;);if(a){for(e=&quot;&quot;,r=parseInt(a.substr(0,2),16),n=2;a.length-n;n+=2)i=parseInt(a.substr(n,2),16)^r,e+=String.fromCharCode(i);e=document.createTextNode(e),c.parentNode.replaceChild(e,c)}}}catch(u){}}();/* ]]&gt; */&lt;/script&gt;\nFormat settings, CABAC         : Yes\nFormat settings, ReFrames      : 4 frames\nCodec ID                       : V_MPEG4/ISO/AVC\nDuration                       : 2h 44mn\nBit rate                       : 17.2 Mbps\nWidth                          : 1 920 pixels\nHeight                         : 1 080 pixels\nDisplay aspect ratio           : 16:9\nFrame rate                     : 25.000 fps\nColor space                    : YUV\nChroma subsampling             : 4:2:0\nBit depth                      : 8 bits\nScan type                      : Progressive\nBits/(Pixel*Frame)             : 0.331\nStream size                    : 19.3 GiB (90%)\nTitle                          : Helene.Fischer.Zum.ersten.Mal.mit.Band.und.Orchester.2011.x264.BDRip(1080p)-neni\nWriting library                : x264 core 130 r2273 b3065e6\nEncoding settings              : cabac=1 / ref=4 / deblock=1:-3:-3 / analyse=0x3:0x113 / me=umh / subme=11 / psy=1 / psy_rd=1.00:0.00 / mixed_ref=1 / me_range=48 / chroma_me=1 / trellis=2 / 8x8dct=1 / cqm=0 / deadzone=21,11 / fast_pskip=0 / chroma_qp_offset=1 / threads=9 / lookahead_threads=1 / sliced_threads=0 / nr=0 / decimate=0 / interlaced=0 / bluray_compat=0 / constrained_intra=0 / bframes=8 / b_pyramid=2 / b_adapt=2 / b_bias=0 / direct=3 / weightb=1 / open_gop=0 / weightp=2 / keyint=250 / keyint_min=25 / scenecut=40 / intra_refresh=0 / rc_lookahead=60 / rc=2pass / mbtree=0 / bitrate=17158 / ratetol=1.0 / qcomp=0.60 / qpmin=0 / qpmax=69 / qpstep=4 / cplxblur=20.0 / qblur=0.5 / vbv_maxrate=50000 / vbv_bufsize=52500 / nal_hrd=none / ip_ratio=1.40 / pb_ratio=1.30 / aq=1:0.80\nLanguage                       : German\nDefault                        : Yes\nForced                         : Yes\n\nAudio\nID                             : 2\nFormat                         : DTS\nFormat/Info                    : Digital Theater Systems\nCodec ID                       : A_DTS\nDuration                       : 2h 44mn\nBit rate mode                  : Constant\nBit rate                       : 1 510 Kbps\nChannel(s)                     : 6 channels\nChannel positions              : Front: L C R, Side: L R, LFE\nSampling rate                  : 48.0 KHz\nBit depth                      : 24 bits\nCompression mode               : Lossy\nStream size                    : 1.73 GiB (8%)\nTitle                          : Original\nLanguage                       : German\nDefault                        : Yes\nForced                         : Yes\n\nMenu\n00:00:00.000                   : :Chapter 01\n00:09:42.840                   : :Chapter 02\n00:13:35.480                   : :Chapter 03\n00:16:10.080                   : :Chapter 04\n00:20:14.320                   : :Chapter 05\n00:27:50.760                   : :Chapter 06\n00:33:41.920                   : :Chapter 07\n00:44:11.600                   : :Chapter 08\n00:54:52.960                   : :Chapter 09\n00:56:06.760                   : :Chapter 10\n01:01:23.720                   : :Chapter 11\n01:04:40.720                   : :Chapter 12\n01:06:51.120                   : :Chapter 13\n01:12:29.560                   : :Chapter 14\n01:18:16.520                   : :Chapter 15\n01:19:36.320                   : :Chapter 16\n01:23:00.920                   : :Chapter 17\n01:25:37.120                   : :Chapter 18\n01:29:48.720                   : :Chapter 19\n01:33:45.920                   : :Chapter 20\n01:38:07.520                   : :Chapter 21\n01:42:44.520                   : :Chapter 22\n01:45:03.360                   : :Chapter 23\n01:51:50.320                   : :Chapter 24\n01:56:10.920                   : :Chapter 25\n02:03:17.720                   : :Chapter 26\n02:09:23.920                   : :Chapter 27\n02:14:58.720                   : :Chapter 28\n02:19:02.920                   : :Chapter 29\n02:22:51.520                   : :Chapter 30\n02:30:07.920                   : :Chapter 31\n02:40:01.040                   : :Chapter 32\n02:44:18.960                   : :Chapter 33","torrent":{"xt":"urn:btih:60ad9c62cbb64bc35af40f74aad6add6c589de9d","amp;dn":"Helene+Fischer+-+Zum+ersten+Mal+mit+Band+und+Orchester+Live+%28201","amp;tr":["udp%3A%2F%2Ftracker.openbittorrent.com%3A80","udp%3A%2F%2Fopen.demonii.com%3A1337","udp%3A%2F%2Ftracker.coppersurfer.tk%3A6969","udp%3A%2F%2Fexodus.desync.com%3A6969"],"infoHash":"60ad9c62cbb64bc35af40f74aad6add6c589de9d","infoHashBuffer":{"type":"Buffer","data":[96,173,156,98,203,182,75,195,90,244,15,116,170,214,173,214,197,137,222,157]},"announce":[],"urlList":[]}}